<svg xmlns="http://www.w3.org/2000/svg" xmlns:xlink="http://www.w3.org/1999/xlink" width="500" zoomAndPan="magnify" viewBox="0 0 375 374.999991" height="500" preserveAspectRatio="xMidYMid meet" version="1.0"><path fill="#000000" d="M 200.304688 104.253906 L 209.9375 94.613281 C 228.863281 75.679688 259.675781 75.210938 278.703125 94.035156 C 293.894531 109.058594 297.054688 131.683594 288.183594 149.871094 C 283.816406 158.820312 285.582031 169.554688 292.625 176.59375 C 319.148438 150.054688 319.101562 106.851562 292.488281 80.375 C 265.871094 53.894531 222.667969 54.421875 196.128906 80.976562 L 104.277344 172.886719 L 96.722656 165.328125 C 77.476562 146.066406 77.351562 114.59375 96.941406 95.679688 C 112.109375 81.03125 134.535156 78.234375 152.480469 87.285156 C 160.9375 91.550781 171.144531 90.050781 177.839844 83.351562 L 178.074219 83.117188 C 178.378906 82.8125 178.378906 82.316406 178.070312 82.011719 C 151.839844 56.363281 109.820312 56.261719 83.46875 81.71875 C 56.070312 108.183594 56.164062 152.199219 83.101562 179.148438 L 174.933594 271.03125 L 165.175781 280.792969 C 146.253906 299.726562 115.441406 300.195312 96.410156 281.371094 C 81.222656 266.347656 78.058594 243.722656 86.933594 225.539062 C 91.296875 216.589844 89.53125 205.859375 82.492188 198.820312 C 55.960938 225.339844 56.007812 268.546875 82.617188 295.023438 C 109.230469 321.507812 152.433594 320.976562 178.972656 294.425781 L 270.953125 202.394531 L 278.53125 209.976562 C 297.457031 228.910156 297.921875 259.742188 279.109375 278.78125 C 264.09375 293.976562 241.480469 297.140625 223.304688 288.265625 C 214.359375 283.898438 203.632812 285.664062 196.597656 292.707031 C 223.121094 319.246094 266.296875 319.199219 292.761719 292.570312 C 319.226562 265.941406 318.699219 222.714844 292.160156 196.160156 Z M 188.644531 257.296875 L 117.992188 186.609375 L 186.585938 117.980469 L 257.238281 188.671875 Z M 188.644531 257.296875 " fill-opacity="1" fill-rule="nonzero"/></svg>